<svg width="512" height="512" viewBox="0 0 512 512" fill="none" xmlns="http://www.w3.org/2000/svg">
<rect width="512" height="512" rx="32" fill="white"/>
<path fill-rule="evenodd" clip-rule="evenodd" d="M297.761 104.486C292.098 104.486 287.507 109.072 287.507 114.73C287.507 120.387 292.098 124.973 297.761 124.973C303.423 124.973 308.014 120.387 308.014 114.73C308.014 109.072 303.423 104.486 297.761 104.486ZM267 114.73C267 97.7581 280.772 84 297.761 84C314.749 84 328.521 97.7581 328.521 114.73C328.521 128.109 319.961 139.492 308.014 143.71V228.258C308.014 235.619 310.379 240.152 313.527 243.314C316.945 246.745 322.026 249.273 328.339 250.959C339.262 253.877 350.911 253.632 357.765 253.488C359.009 253.462 360.095 253.439 360.991 253.439C385.986 253.439 403.423 264.311 414.224 279.882C424.678 294.952 428.493 313.73 428.493 329.836V368.29C440.44 372.508 449 383.891 449 397.27C449 414.242 435.228 428 418.239 428C401.251 428 387.479 414.242 387.479 397.27C387.479 383.891 396.039 372.508 407.986 368.29V329.836C407.986 316.493 404.752 302.194 397.369 291.55C390.333 281.407 379.145 273.926 360.991 273.926C360.475 273.926 359.733 273.945 358.795 273.969C352.455 274.135 337.201 274.533 323.042 270.75C318.068 269.422 312.87 267.499 308.014 264.668V368.29C319.961 372.508 328.521 383.891 328.521 397.27C328.521 414.242 314.749 428 297.761 428C280.772 428 267 414.242 267 397.27C267 383.891 275.56 372.508 287.507 368.29V143.71C275.56 139.492 267 128.109 267 114.73ZM297.761 387.027C292.098 387.027 287.507 391.613 287.507 397.27C287.507 402.928 292.098 407.514 297.761 407.514C303.423 407.514 308.014 402.928 308.014 397.27C308.014 391.613 303.423 387.027 297.761 387.027ZM418.239 387.027C412.577 387.027 407.986 391.613 407.986 397.27C407.986 402.928 412.577 407.514 418.239 407.514C423.902 407.514 428.493 402.928 428.493 397.27C428.493 391.613 423.902 387.027 418.239 387.027Z" fill="black"/>
<path fill-rule="evenodd" clip-rule="evenodd" d="M92.7606 407.514C87.0977 407.514 82.507 402.928 82.507 397.27C82.507 391.613 87.0977 387.027 92.7606 387.027C98.4234 387.027 103.014 391.613 103.014 397.27C103.014 402.928 98.4234 407.514 92.7606 407.514ZM62 397.27C62 414.242 75.772 428 92.7606 428C109.749 428 123.521 414.242 123.521 397.27C123.521 383.891 114.961 372.508 103.014 368.29V283.742C103.014 276.381 105.379 271.848 108.527 268.686C111.945 265.255 117.026 262.727 123.339 261.041C134.262 258.123 145.911 258.368 152.765 258.512C154.009 258.538 155.095 258.561 155.991 258.561C180.986 258.561 198.423 247.689 209.224 232.118C219.678 217.048 223.493 198.27 223.493 182.164V143.71C235.44 139.492 244 128.109 244 114.73C244 97.7581 230.228 84 213.239 84C196.251 84 182.479 97.7581 182.479 114.73C182.479 128.109 191.039 139.492 202.986 143.71V182.164C202.986 195.507 199.752 209.806 192.369 220.45C185.333 230.593 174.145 238.074 155.991 238.074C155.475 238.074 154.733 238.055 153.795 238.031C147.455 237.865 132.201 237.467 118.042 241.25C113.068 242.578 107.87 244.501 103.014 247.332V143.71C114.961 139.492 123.521 128.109 123.521 114.73C123.521 97.7581 109.749 84 92.7606 84C75.772 84 62 97.7581 62 114.73C62 128.109 70.5597 139.492 82.507 143.71V368.29C70.5597 372.508 62 383.891 62 397.27ZM92.7606 124.973C87.0977 124.973 82.507 120.387 82.507 114.73C82.507 109.072 87.0977 104.486 92.7606 104.486C98.4234 104.486 103.014 109.072 103.014 114.73C103.014 120.387 98.4234 124.973 92.7606 124.973ZM213.239 124.973C207.577 124.973 202.986 120.387 202.986 114.73C202.986 109.072 207.577 104.486 213.239 104.486C218.902 104.486 223.493 109.072 223.493 114.73C223.493 120.387 218.902 124.973 213.239 124.973Z" fill="black"/>
</svg>
